<?xml version="1.0" standalone="no"?>
<!DOCTYPE svg PUBLIC "-//W3C//DTD SVG 20010904//EN"
 "http://www.w3.org/TR/2001/REC-SVG-20010904/DTD/svg10.dtd">
<svg version="1.0" xmlns="http://www.w3.org/2000/svg"
 width="500.000000pt" height="500.000000pt" viewBox="0 0 500.000000 500.000000"
 preserveAspectRatio="xMidYMid meet">

<g transform="translate(0.000000,500.000000) scale(0.100000,-0.100000)"
fill="#000000" stroke="none">
<path d="M2511 3613 c-64 -32 -95 -120 -67 -188 9 -21 13 -43 8 -49 -82 -111
-157 -196 -173 -196 -11 0 -36 -7 -56 -15 -124 -52 -130 -226 -10 -287 75 -38
153 -12 196 63 26 46 27 98 1 151 -11 23 -16 44 -12 47 4 3 43 50 86 104 43
53 81 95 85 93 18 -12 92 19 122 50 30 31 34 41 34 92 0 43 -6 65 -22 88 -43
60 -125 80 -192 47z m-196 -558 c14 -13 25 -31 25 -40 0 -21 -36 -55 -60 -55
-24 0 -60 34 -60 55 0 18 44 65 60 65 6 0 22 -11 35 -25z"/>
<path d="M1955 3523 c-32 -8 -74 -42 -90 -73 -11 -22 -15 -66 -15 -178 0 -179
-7 -196 -90 -207 -51 -7 -52 -9 -52 -60 0 -50 2 -53 48 -60 31 -4 54 -15 70
-32 23 -25 24 -32 24 -174 0 -133 2 -152 21 -184 36 -61 79 -75 224 -75 l125
0 0 60 0 60 -111 0 c-61 0 -119 5 -130 10 -17 10 -19 23 -19 151 0 151 -7 180
-55 217 l-25 19 28 24 c45 39 52 68 52 222 0 98 4 147 12 155 8 8 52 12 130
12 l118 0 0 60 0 60 -122 -1 c-68 -1 -132 -4 -143 -6z"/>
<path d="M2844 3288 c-4 -6 -2 -13 4 -17 7 -4 6 -13 -4 -25 -14 -20 -19 -12
-15 22 2 10 -2 10 -19 0 l-20 -13 22 -16 c22 -17 53 -15 42 2 -3 5 -2 9 3 10
4 0 19 2 32 5 14 2 28 -1 32 -8 5 -8 10 -3 14 15 4 15 11 27 15 27 5 0 6 -9 3
-20 -3 -11 -1 -20 4 -20 6 0 10 10 9 23 -1 20 -6 22 -58 24 -32 1 -61 -3 -64
-9z m63 -14 c-3 -3 -12 -4 -19 -1 -8 3 -5 6 6 6 11 1 17 -2 13 -5z"/>
<path d="M2980 3270 c0 -5 5 -10 11 -10 5 0 7 -5 3 -12 -4 -7 -3 -8 5 -4 9 6
9 11 0 22 -14 17 -19 18 -19 4z"/>
<path d="M2863 3222 c-8 -32 4 -40 16 -9 5 14 16 27 23 30 7 3 3 4 -10 4 -15
-1 -25 -9 -29 -25z"/>
<path d="M2777 3226 c-3 -8 0 -20 6 -28 7 -7 11 -11 10 -9 -2 2 5 10 14 16 15
11 15 13 -4 24 -16 8 -22 8 -26 -3z m30 -12 c-3 -3 -12 -4 -19 -1 -8 3 -5 6 6
6 11 1 17 -2 13 -5z"/>
<path d="M2905 3220 c-3 -5 -2 -10 4 -10 5 0 13 5 16 10 3 6 2 10 -4 10 -5 0
-13 -4 -16 -10z"/>
<path d="M2934 3209 c-5 -8 -3 -9 6 -4 7 4 16 2 22 -6 8 -12 9 -12 6 0 -6 20
-24 25 -34 10z"/>
<path d="M2841 3164 c0 -11 3 -14 6 -6 3 7 2 16 -1 19 -3 4 -6 -2 -5 -13z"/>
<path d="M2750 3151 c0 -6 4 -13 10 -16 6 -3 7 1 4 9 -7 18 -14 21 -14 7z"/>
<path d="M2745 3051 c-3 -5 -2 -12 3 -15 5 -3 9 1 9 9 0 17 -3 19 -12 6z"/>
<path d="M3013 2212 l-53 -3 0 -220 0 -219 118 0 c113 0 120 1 164 29 54 35
82 71 98 131 31 115 -35 242 -140 270 -45 12 -111 16 -187 12z m171 -93 c43
-21 68 -61 74 -117 9 -100 -55 -162 -166 -162 l-52 0 0 151 0 151 58 -4 c31
-2 70 -11 86 -19z"/>
<path d="M790 1990 l0 -220 40 0 40 0 0 148 1 147 19 -25 c40 -50 51 -66 118
-167 l67 -103 48 0 47 0 0 220 0 220 -45 0 -44 0 -3 -145 -3 -145 -99 145
-100 145 -43 0 -43 0 0 -220z"/>
<path d="M1280 2045 c0 -184 5 -205 63 -249 18 -14 53 -30 79 -37 56 -15 114
-2 167 38 53 41 61 72 61 253 l0 160 -39 0 -39 0 -4 -159 c-4 -179 -9 -191
-78 -212 -46 -14 -101 8 -119 47 -7 15 -11 84 -11 174 l0 150 -40 0 -40 0 0
-165z"/>
<path d="M1740 2207 c0 -3 62 -180 111 -317 17 -47 33 -93 36 -102 4 -14 17
-18 62 -18 l56 0 75 207 c41 113 76 212 78 220 3 9 -9 13 -41 13 l-45 0 -37
-107 c-74 -216 -80 -233 -86 -233 -3 0 -16 30 -28 68 -13 37 -39 113 -58 170
l-35 102 -44 0 c-24 0 -44 -1 -44 -3z"/>
<path d="M2250 1990 l0 -220 40 0 40 0 0 220 0 220 -40 0 -40 0 0 -220z"/>
<path d="M2591 2188 c-5 -13 -43 -109 -85 -215 -42 -105 -76 -194 -76 -197 0
-3 22 -6 48 -6 l48 0 13 45 13 46 96 -3 95 -3 15 -42 c14 -43 14 -43 63 -43
l49 0 -13 33 c-7 17 -47 116 -88 219 l-74 188 -48 0 c-40 0 -49 -4 -56 -22z
m89 -161 c10 -28 21 -60 25 -69 6 -16 0 -18 -54 -18 -34 0 -61 3 -61 8 0 4 12
42 27 84 30 85 31 84 63 -5z"/>
<path d="M3450 1990 l0 -220 145 0 145 0 0 35 0 35 -105 0 -105 0 0 55 0 55
96 0 95 0 -3 38 -3 37 -93 0 -92 0 0 58 0 57 103 0 102 0 0 35 0 35 -142 0
-143 0 0 -220z"/>
<path d="M3820 2200 c0 -5 4 -19 9 -32 5 -13 19 -50 31 -83 12 -33 26 -69 30
-80 11 -26 80 -226 80 -232 0 -2 25 -3 57 -1 l56 3 24 65 c13 36 30 83 37 105
8 22 33 89 55 149 23 60 41 110 41 112 0 2 -20 4 -44 4 l-43 0 -23 -62 c-12
-35 -35 -101 -51 -148 -17 -47 -35 -96 -41 -110 l-11 -25 -13 30 c-7 17 -34
94 -60 173 l-48 142 -43 0 c-24 0 -43 -4 -43 -10z"/>
<path d="M950 1558 c0 -6 5 -28 11 -47 35 -109 40 -113 64 -41 9 28 18 50 20
50 2 0 11 -22 20 -50 9 -27 20 -50 25 -50 11 0 50 107 50 136 0 32 -17 10 -30
-36 -7 -27 -17 -50 -21 -50 -4 0 -13 23 -20 50 -7 28 -18 50 -24 50 -6 0 -17
-22 -24 -50 -7 -27 -16 -50 -20 -50 -4 0 -13 23 -20 50 -11 45 -31 69 -31 38z"/>
<path d="M1190 1495 l0 -75 39 0 c49 0 64 18 19 22 -25 2 -33 8 -33 23 0 14 8
21 28 23 37 4 35 22 -3 22 -23 0 -30 4 -30 20 0 16 7 20 35 20 19 0 35 5 35
10 0 6 -20 10 -45 10 l-45 0 0 -75z"/>
<path d="M1330 1495 c0 -74 0 -75 26 -75 50 0 63 15 62 73 -1 63 -11 77 -54
77 l-34 0 0 -75z m68 38 c-2 -10 -13 -19 -26 -21 -17 -3 -22 2 -22 17 0 16 6
21 26 21 19 0 25 -5 22 -17z m-3 -68 c0 -13 -8 -21 -22 -23 -19 -3 -23 1 -23
23 0 22 4 26 23 23 14 -2 22 -10 22 -23z"/>
<path d="M1554 1556 c-4 -9 -4 -25 -1 -36 3 -10 -1 -24 -9 -31 -19 -16 -17
-33 7 -54 17 -16 25 -17 49 -8 18 7 32 7 36 2 3 -5 10 -9 16 -9 7 0 6 5 -2 15
-7 8 -10 26 -8 40 5 25 -7 35 -15 13 -3 -10 -10 -8 -23 5 -12 11 -14 17 -5 17
8 0 11 10 9 28 -3 31 -44 45 -54 18z m36 -21 c0 -8 -4 -15 -10 -15 -5 0 -10 7
-10 15 0 8 5 15 10 15 6 0 10 -7 10 -15z m5 -65 c16 -18 16 -20 1 -26 -21 -8
-47 13 -39 32 7 19 17 18 38 -6z"/>
<path d="M1770 1495 c0 -83 4 -87 69 -64 84 30 60 139 -31 139 l-38 0 0 -75z
m82 38 c36 -33 8 -93 -44 -93 -15 0 -18 9 -18 55 0 50 2 55 22 55 12 0 30 -7
40 -17z"/>
<path d="M1940 1495 c0 -43 4 -75 10 -75 6 0 10 32 10 75 0 43 -4 75 -10 75
-6 0 -10 -32 -10 -75z"/>
<path d="M2020 1538 c-24 -40 -24 -41 -5 -78 18 -35 54 -47 87 -29 49 25 54
69 8 69 -16 0 -30 -4 -30 -10 0 -5 9 -10 20 -10 25 0 26 -16 1 -30 -27 -14
-37 -13 -55 6 -19 18 -21 65 -4 82 15 15 51 15 66 0 6 -6 15 -8 19 -4 12 12
-28 36 -59 36 -21 0 -33 -8 -48 -32z"/>
<path d="M2190 1495 c0 -43 4 -75 10 -75 6 0 10 32 10 75 0 43 -4 75 -10 75
-6 0 -10 -32 -10 -75z"/>
<path d="M2255 1560 c-4 -6 5 -10 19 -10 25 0 26 -2 26 -67 0 -36 2 -64 6 -61
3 3 5 33 5 67 1 58 2 61 25 61 13 0 24 5 24 10 0 6 -22 10 -49 10 -28 0 -53
-4 -56 -10z"/>
<path d="M2411 1528 c-10 -24 -22 -59 -25 -78 l-7 -35 20 23 c24 28 67 29 76
2 7 -22 25 -28 24 -7 -1 27 -45 131 -56 135 -8 2 -21 -15 -32 -40z m39 -7 c0
-5 3 -16 6 -25 4 -12 0 -16 -16 -16 -16 0 -20 4 -16 16 3 9 6 20 6 25 0 5 5 9
10 9 6 0 10 -4 10 -9z"/>
<path d="M2550 1494 l0 -75 43 3 c49 4 56 22 10 26 l-33 3 0 60 c0 33 -4 59
-10 59 -6 0 -10 -32 -10 -76z"/>
<path d="M2750 1550 c-15 -28 3 -58 37 -62 20 -2 28 -9 28 -23 0 -21 -21 -25
-60 -11 -17 7 -17 5 4 -13 30 -27 56 -27 75 1 20 28 5 55 -36 66 -17 4 -33 13
-36 20 -6 18 28 27 50 13 25 -15 35 -7 18 14 -18 22 -67 19 -80 -5z"/>
<path d="M2906 1548 c-26 -41 -24 -80 6 -108 46 -43 113 -10 111 54 -1 48 -27
76 -69 76 -24 0 -38 -7 -48 -22z m82 -10 c20 -20 15 -76 -7 -88 -11 -5 -24
-10 -30 -10 -19 0 -41 32 -41 59 0 32 16 51 45 51 12 0 26 -5 33 -12z"/>
<path d="M3077 1498 l1 -73 36 0 c20 0 35 5 34 10 -2 6 -14 10 -28 10 -24 1
-25 4 -28 63 -4 87 -17 78 -15 -10z"/>
<path d="M3200 1512 c0 -80 35 -111 91 -82 16 9 19 22 19 75 0 37 -4 65 -10
65 -6 0 -10 -26 -10 -59 0 -51 -3 -61 -20 -66 -34 -11 -50 12 -50 71 0 30 -4
54 -10 54 -6 0 -10 -26 -10 -58z"/>
<path d="M3350 1560 c0 -5 11 -10 25 -10 24 0 25 -2 25 -65 0 -37 4 -65 10
-65 6 0 10 28 10 65 0 58 2 65 20 65 11 0 20 5 20 10 0 6 -25 10 -55 10 -30 0
-55 -4 -55 -10z"/>
<path d="M3510 1494 c0 -47 4 -73 10 -69 6 3 10 37 10 76 0 39 -4 69 -10 69
-6 0 -10 -32 -10 -76z"/>
<path d="M3597 1552 c-26 -28 -23 -97 5 -116 30 -21 60 -20 85 4 32 30 37 56
16 93 -23 40 -78 50 -106 19z m81 -14 c26 -26 4 -98 -29 -98 -29 0 -49 22 -49
53 0 38 15 57 45 57 12 0 26 -5 33 -12z"/>
<path d="M3760 1495 c0 -85 17 -103 22 -22 l3 52 38 -53 c22 -28 43 -49 48
-46 12 7 12 144 -1 144 -5 0 -10 -20 -10 -45 0 -25 -4 -45 -8 -45 -5 0 -23 20
-41 45 -18 25 -36 45 -42 45 -5 0 -9 -34 -9 -75z"/>
<path d="M3940 1555 c-15 -18 -10 -46 10 -55 42 -19 54 -27 57 -37 6 -17 -36
-26 -53 -12 -8 6 -18 9 -22 5 -9 -10 27 -36 48 -36 28 0 52 25 48 50 -2 16
-13 27 -38 35 -43 14 -54 45 -17 45 14 0 27 -6 30 -12 2 -7 8 -10 12 -6 12 12
-15 38 -40 38 -12 0 -28 -7 -35 -15z"/>
</g>
</svg>
